# xmcd CD database file
#
# Track frame offsets:
#	180
#	18365
#	35482
#	51852
#	69462
#	83600
#	102354
#	117627
#	132802
#	154125
#	170645
#	184215
#
# Disc length: 2611 seconds
#
# Revision: 0
# Processed by: cddbd v1.4PL0 Copyright (c) Steve Scherf et al.
# Submitted via: Feurio! 1.65 - http://www.feurio.com
#
DISCID=a00a310c
DTITLE=Jon Paris and Cold Sweat - Right Around The Corner
DYEAR=1997
DGENRE=blues
TTITLE0=Right Around The Corner
TTITLE1=Working For The Landlord
TTITLE2=I Want My Baby Back
TTITLE3=Mudcat Inn
TTITLE4=I Just Want To Make Love To You
TTITLE5=Any Age Can Be A Fool
TTITLE6=Love Prowl
TTITLE7=Gonna Scratch Your Name Off The Mailbox
TTITLE8=Good To Me As I Am To You
TTITLE9=$$$ You Gotta Show Me The Money $$$
TTITLE10=Sticks and Stones
TTITLE11=Leo's Juke And Jive
EXTD=1997 Bahoomba Music
EXTT0=
EXTT1=
EXTT2=
EXTT3=
EXTT4=
EXTT5=
EXTT6=
EXTT7=
EXTT8=
EXTT9=
EXTT10=
EXTT11=
PLAYORDER=
